<svg id="Calque_3" data-name="Calque 3" xmlns="http://www.w3.org/2000/svg" viewBox="0 0 957.02 804.99"><defs><style>.cls-1,.cls-2,.cls-4{fill:#fff;}.cls-1,.cls-3,.cls-4{stroke:#fff;}.cls-1{stroke-miterlimit:10;stroke-width:2px;}.cls-3{fill:none;}.cls-3,.cls-4{stroke-linejoin:bevel;stroke-width:6px;}</style></defs><title>raccoon logo</title><path class="cls-1" d="M372.88,494.8c-30.41-5.07-263.23,18.44-334.27,65.2-20.43,13.45,5,73,9,83,15.51,38.77,253.56,135.53,264,129s97.81-91.88,110.86-81.44c0,0,42.76,28.18,53.4,103.69-12.78,1.33-26.41,3.54-33.82,7.25-18.11,9-33.7,70.33-9.44,90.5,3.71,3.08,6,5.49,11.66,6.46A189.25,189.25,0,0,0,477.61,901C496,901,506,900,506,900V553.53S412,501.32,372.88,494.8ZM369,611a39.16,39.16,0,1,1,39.16-39.15A39.15,39.15,0,0,1,369,611Z" transform="translate(-21.34 -97.01)"/><path class="cls-1" d="M467.28,533.91s90.62-229.2-120.81-364.79c0,0,74.39-26.33,154-22.38l3.91,406.79Z" transform="translate(-21.34 -97.01)"/><path class="cls-2" d="M134,366.36c-6.9,0-12.63-1.88-16.58-5.43-27.06-24.36-82.27-105.52-91-145.64-8.95-40.92-1.58-82.59,7.65-94.45,5.36-6.89,15.34-19.72,45.14-19.72,15.8,0,35.38,3.67,58.17,10.93,65.35,20.79,101.15,42.31,105,44.69,3.22,2,6.35,4.33,7.46,7.94,4,13-19,111.3-56.87,163.78-9.1,12.61-19.39,22.38-30.59,29.06-9.71,5.78-19.51,8.84-28.34,8.84ZM72.41,118.17c-9.73,0-17.79,1.71-24,5.1-30.12,16.47-20.51,83-20.09,85.85,4.83,32.21,33.72,75.58,45.92,92.72C95.4,331.57,118,356,125.73,357.44a35.59,35.59,0,0,0,6.42.6c17.68,0,36.12-13.9,53.33-40.19,25.32-38.69,34.77-95.26,34.09-110.22,0-.83,0-1.7-.06-2.62-.06-5.55-.15-13.15-6.64-22.7-11.08-16.31-37.81-32.45-59.14-42.11C139.11,133.58,101.92,118.17,72.41,118.17Z" transform="translate(-21.34 -97.01)"/><path class="cls-2" d="M79.18,102.12c15.7,0,35.17,3.66,57.87,10.88,65.23,20.75,100.94,42.22,104.79,44.59,3.53,2.18,6.08,4.27,7,7.38,4,12.86-19,110.63-56.73,162.91-9,12.49-19.21,22.17-30.29,28.78-9.55,5.69-19.18,8.7-27.84,8.7-6.64,0-12.15-1.79-15.91-5.17-13.08-11.77-33.37-37.62-51.7-65.84-20.79-32-35-60.91-39-79.28a182.48,182.48,0,0,1-2.9-58.23c1.82-16,5.79-29.51,10.36-35.38,5.25-6.76,15-19.34,44.35-19.34m53,256.92c9.44,0,19-3.77,28.53-11.21,8.68-6.81,17.31-16.71,25.63-29.43,13.53-20.67,21.91-45.67,26.56-63,5.83-21.73,8.07-39.68,7.7-47.82,0-.8,0-1.67-.06-2.58-.06-5.68-.16-13.46-6.81-23.25-11.2-16.48-38.11-32.74-59.56-42.46-44.06-20-71.84-22.12-81.73-22.12S54.29,118.92,48,122.39c-30.73,16.8-21,84-20.6,86.88,1.62,10.8,9.36,41.5,46.09,93.15,18.39,25.86,42.9,54.28,52.1,56a35.82,35.82,0,0,0,6.61.62m-53-258.92c-29.68,0-40.12,12.64-45.93,20.11-9.14,11.75-17,53.51-7.83,95.27s65.25,122.68,91.35,146.17c4.08,3.67,10.09,5.69,17.25,5.69,16.88,0,40.16-11.19,59.76-38.31,37.4-51.79,61.38-150.51,57-164.67-1.2-3.89-4.43-6.35-7.9-8.49-11.27-6.95-47.81-26.53-105.23-44.8-25.14-8-44.08-11-58.48-11Zm53,256.92a33.11,33.11,0,0,1-6.24-.59C111.28,353.71,37.16,261.18,29.33,209c-1.95-13-7.34-70.12,19.58-84.84,6.5-3.55,14.63-5,23.5-5,31,0,70.87,17.39,80.91,21.94,24.24,11,48.63,26.9,58.73,41.76,7.36,10.84,6.25,18.9,6.52,24.8.76,16.6-9.79,72.74-33.93,109.63C168.78,341.53,150.81,357,132.15,357Z" transform="translate(-21.34 -97.01)"/><path class="cls-3" d="M501.13,148.29l267.55,23.49L894,100l63.29,4.57,14.36,112.24-73.09,141,77,210.12L941.6,664.46l-234.92,107s-36.54,74.39-41.76,77-73.09,24.8-73.09,24.8l-44.37,24.79H505.7l-2.8-458.91Z" transform="translate(-21.34 -97.01)"/><path class="cls-3" d="M503.09,438.68" transform="translate(-21.34 -97.01)"/><polygon class="cls-3" points="732.32 370.38 874.58 431.72 614.21 411.22 732.32 370.38"/><polygon class="cls-3" points="874.58 431.72 954.19 470.87 920.26 567.45 874.58 431.72"/><polygon class="cls-3" points="604.42 627.49 571.79 600.08 535.25 697.96 604.42 627.49"/><path class="cls-3" d="M556.6,795l35.23,78.31Z" transform="translate(-21.34 -97.01)"/><polygon class="cls-3" points="535.25 697.96 483.71 723.05 570.49 776.27 526.12 801.07 484.35 722.76 483.05 557.01 571.79 600.08 535.25 697.96"/><polyline class="cls-3" points="483.05 557.01 571.79 600.08 535.25 697.96 483.05 557.01 587.21 440.36 613.56 410.84 587.46 440.86 667.74 430.58 660.54 472.18 633.13 435.64 660.54 472.18 809.33 481.31 660.54 472.18 659.97 555.38 540.47 491.76"/><polygon class="cls-3" points="809.33 481.31 604.42 627.49 571.79 600.08 809.33 481.31"/><polygon class="cls-3" points="571.79 600.08 541 491.76 483.05 557.01 571.79 600.08"/><polygon class="cls-3" points="587.46 440.86 563.82 503.9 627.91 517.86 659.97 555.38 659.97 472.18 627.91 517.86 587.46 440.86"/><polyline class="cls-3" points="935.92 7.56 883.72 49.32 871.97 3.65 883.72 49.32 950.28 119.8 883.72 49.32 877.19 260.75 746.68 75.43 633.13 147.21 877.19 260.75 570.49 294.68 480.44 51.93 633.13 147.21 570.49 294.68 732.32 370.38 511.76 444.77 483.64 557.41 481.74 341.67 511.76 444.77 570.49 294.68 481.74 341.67"/><path class="cls-3" d="M753.67,467.39" transform="translate(-21.34 -97.01)"/><line class="cls-3" x1="746.68" y1="75.43" x2="883.72" y2="49.32"/><polyline class="cls-3" points="484.31 698.47 535.25 697.96 643.58 751.47 604.42 627.49 685.34 674.47 809.33 481.31 613.56 410.84 809.33 481.31 920.26 567.45 809.33 481.31 874.58 431.72"/><polyline class="cls-3" points="660.54 555.71 730.26 477.46 668.37 430.42"/><polygon class="cls-4" points="587.66 440.99 632.66 435.99 659.66 471.99 627.66 517.99 563.66 503.99 587.66 440.99"/></svg>