<svg id="Calque_3" data-name="Calque 3" xmlns="http://www.w3.org/2000/svg" viewBox="0 0 957.63 805.01"><defs><style>.cls-1,.cls-2,.cls-3,.cls-5{stroke:#000;}.cls-1,.cls-2{stroke-miterlimit:10;}.cls-1{stroke-width:2px;}.cls-3,.cls-4{fill:none;}.cls-3,.cls-4,.cls-5{stroke-linejoin:bevel;stroke-width:6px;}.cls-4{stroke:#fff;}</style></defs><title>raccoon-dark copie</title><path class="cls-1" d="M351.5,397.79c-30.4-5.1-263.2,18.4-334.3,65.2-20.4,13.5,5,73,9,83,15.5,38.8,253.6,135.5,264,129s97.8-91.9,110.9-81.4c0,0,42.8,28.2,53.4,103.7-12.8,1.3-26.4,3.5-33.8,7.2-18.1,9-33.7,70.3-9.4,90.5,3.7,3.1,6,5.5,11.7,6.5a185.71,185.71,0,0,0,33.3,2.5c18.4,0,28.4-1,28.4-1V456.49S390.7,404.29,351.5,397.79ZM347.7,514a39.2,39.2,0,1,1,39.2-39.2h0A39.25,39.25,0,0,1,347.7,514Z" transform="translate(0.5 0)"/><path class="cls-1" d="M445.9,436.89s90.6-229.2-120.8-364.8c0,0,74.4-26.3,154-22.4l3.9,406.8Z" transform="translate(0.5 0)"/><path class="cls-2" d="M112.7,269.29c-6.9,0-12.6-1.9-16.6-5.4-27.1-24.3-82.3-105.5-91-145.6-9-40.9-1.6-82.6,7.7-94.4C18.2,17,28.1,4.19,57.9,4.19,73.7,4.09,93.2,7.79,116,15c65.4,20.8,101.1,42.3,105,44.7,3.2,2,6.4,4.3,7.5,7.9,4,13-19,111.3-56.9,163.8-9.1,12.6-19.4,22.4-30.6,29.1C131.3,266.29,121.5,269.29,112.7,269.29ZM51.1,21.19c-9.7,0-17.8,1.7-24,5.1C-3,42.69,6.6,109.29,7,112.09c4.8,32.2,33.7,75.6,45.9,92.7,21.2,29.7,43.8,54.2,51.5,55.6a34.34,34.34,0,0,0,6.4.6c17.7,0,36.1-13.9,53.3-40.2,25.3-38.7,34.8-95.3,34.1-110.2a25,25,0,0,0-.1-2.6c-.1-5.6-.1-13.1-6.6-22.7-11.1-16.3-37.8-32.4-59.1-42.1C117.8,36.59,80.6,21.19,51.1,21.19Z" transform="translate(0.5 0)"/><path class="cls-2" d="M57.8,5.09c15.7,0,35.2,3.7,57.9,10.9,65.2,20.8,100.9,42.2,104.8,44.6,3.5,2.2,6.1,4.3,7,7.4,4,12.9-19,110.6-56.7,162.9-9,12.5-19.2,22.2-30.3,28.8-9.6,5.7-19.2,8.7-27.8,8.7-6.6,0-12.2-1.8-15.9-5.2-13.1-11.8-33.4-37.6-51.7-65.8-20.8-32-35-60.9-39-79.3a181.25,181.25,0,0,1-3-58.3c1.8-16,5.8-29.5,10.4-35.4,5.2-6.7,15-19.3,44.3-19.3m53,256.9c9.4,0,19-3.8,28.5-11.2,8.7-6.8,17.3-16.7,25.6-29.4,13.5-20.7,21.9-45.7,26.6-63,5.8-21.7,8.1-39.7,7.7-47.8a25,25,0,0,0-.1-2.6c-.1-5.7-.2-13.5-6.8-23.2-11.2-16.5-38.1-32.7-59.6-42.5-43.9-20-71.7-22.1-81.6-22.1s-18.1,1.7-24.4,5.2c-30.7,16.8-21,84-20.6,86.9,1.6,10.8,9.4,41.5,46.1,93.1,18.4,25.9,42.9,54.3,52.1,56a35.41,35.41,0,0,0,6.5.6M57.9,3.09c-29.7,0-40.1,12.6-45.9,20.1C2.8,35-5.1,76.69,4.1,118.49s65.2,122.7,91.3,146.2c4.1,3.7,10.1,5.7,17.2,5.7,16.9,0,40.2-11.2,59.8-38.3,37.4-51.8,61.4-150.5,57-164.7-1.2-3.9-4.4-6.4-7.9-8.5-11.3-6.9-47.8-26.5-105.2-44.8C91.2,6.09,72.2,3.09,57.9,3.09Zm53,256.9a32.25,32.25,0,0,1-6.2-.6C89.9,256.69,15.8,164.19,8,112,6,99,.6,41.89,27.6,27.09c6.5-3.6,14.6-5,23.5-5,31,0,70.9,17.4,80.9,21.9,24.2,11,48.6,26.9,58.7,41.8,7.4,10.8,6.2,18.9,6.5,24.8.8,16.6-9.8,72.7-33.9,109.6-15.9,24.3-33.8,39.8-52.4,39.8Z" transform="translate(0.5 0)"/><path class="cls-3" d="M479.8,51.29l267.5,23.5L872.7,3,936,7.59l14.4,112.2-73.1,141,77,210.1-34,96.5-234.9,107s-36.5,74.4-41.8,77-73.1,24.8-73.1,24.8L526.1,801H484.3l-2.8-458.9Z" transform="translate(0.5 0)"/><path class="cls-4" d="M481.8,341.69" transform="translate(0.5 0)"/><polygon class="cls-3" points="732.8 370.39 875.1 431.69 614.7 411.19 732.8 370.39"/><polygon class="cls-3" points="875.1 431.69 954.7 470.89 920.8 567.49 875.1 431.69"/><polygon class="cls-3" points="604.9 627.49 572.3 600.09 535.7 697.99 604.9 627.49"/><path class="cls-3" d="M535.3,698l35.2,78.3Z" transform="translate(0.5 0)"/><polygon class="cls-3" points="535.7 697.99 484.2 722.99 571 776.29 526.6 801.09 484.9 722.79 483.5 556.99 572.3 600.09 535.7 697.99"/><polyline class="cls-3" points="483.5 556.99 572.3 600.09 535.7 697.99 483.5 556.99 587.7 440.39 614.1 410.79 588 440.89 668.2 430.59 661 472.19 633.6 435.59 661 472.19 809.8 481.29 661 472.19 660.5 555.39 541 491.79"/><polygon class="cls-3" points="809.8 481.29 604.9 627.49 572.3 600.09 809.8 481.29"/><polygon class="cls-3" points="572.3 600.09 541.5 491.79 483.5 556.99 572.3 600.09"/><polygon class="cls-3" points="588 440.89 564.3 503.89 628.4 517.89 660.5 555.39 660.5 472.19 628.4 517.89 588 440.89"/><polyline class="cls-3" points="936.4 7.59 884.2 49.29 872.5 3.59 884.2 49.29 950.8 119.79 884.2 49.29 877.7 260.79 747.2 75.39 633.6 147.19 877.7 260.79 571 294.69 480.9 51.89 633.6 147.19 571 294.69 732.8 370.39 512.3 444.79 484.1 557.39 482.2 341.69 512.3 444.79 571 294.69 482.2 341.69"/><path class="cls-3" d="M732.3,370.39" transform="translate(0.5 0)"/><line class="cls-3" x1="747.2" y1="75.39" x2="884.2" y2="49.29"/><polyline class="cls-3" points="484.8 698.49 535.7 697.99 644.1 751.49 604.9 627.49 685.8 674.49 809.8 481.29 614.1 410.79 809.8 481.29 920.8 567.49 809.8 481.29 875.1 431.69"/><polyline class="cls-3" points="661 555.69 730.8 477.49 668.9 430.39"/><polygon class="cls-5" points="588.2 440.99 633.2 435.99 660.2 471.99 628.2 517.99 564.2 503.99 588.2 440.99"/></svg>