<svg id="Calque_3" data-name="Calque 3" xmlns="http://www.w3.org/2000/svg" viewBox="0 0 957.13 805.02"><defs><style>.cls-1,.cls-3{stroke:#fff;}.cls-1{stroke-miterlimit:10;stroke-width:2px;}.cls-2,.cls-3{fill:none;}.cls-2,.cls-4{stroke:#000;}.cls-2,.cls-3,.cls-4{stroke-linejoin:bevel;stroke-width:6px;}</style></defs><title>raccoon-dark2</title><path class="cls-1" d="M351.5,397.8C321.1,392.7,88.3,416.2,17.2,463c-20.4,13.5,5,73,9,83,15.5,38.8,253.6,135.5,264,129s97.8-91.9,110.9-81.4c0,0,42.8,28.2,53.4,103.7-12.8,1.3-26.4,3.5-33.8,7.2-18.1,9-33.7,70.3-9.4,90.5,3.7,3.1,6,5.5,11.7,6.5a186.06,186.06,0,0,0,33.3,2.5c18.4,0,28.4-1,28.4-1V456.5S390.7,404.3,351.5,397.8ZM347.7,514a39.2,39.2,0,1,1,39.2-39.2h0A39.26,39.26,0,0,1,347.7,514Z" transform="translate(0 -0.01)"/><path class="cls-1" d="M445.9,436.9S536.5,207.7,325.1,72.1c0,0,74.4-26.3,154-22.4L483,456.5Z" transform="translate(0 -0.01)"/><path d="M112.7,269.3c-6.9,0-12.6-1.9-16.6-5.4C69,239.6,13.8,158.4,5.1,118.3c-9-40.9-1.6-82.6,7.7-94.4C18.2,17,28.1,4.2,57.9,4.2,73.7,4.1,93.2,7.8,116,15c65.4,20.8,101.1,42.3,105,44.7,3.2,2,6.4,4.3,7.5,7.9,4,13-19,111.3-56.9,163.8-9.1,12.6-19.4,22.4-30.6,29.1-9.7,5.8-19.5,8.8-28.3,8.8ZM51.1,21.2c-9.7,0-17.8,1.7-24,5.1C-3,42.7,6.6,109.3,7,112.1c4.8,32.2,33.7,75.6,45.9,92.7,21.2,29.7,43.8,54.2,51.5,55.6a34.66,34.66,0,0,0,6.4.6c17.7,0,36.1-13.9,53.3-40.2,25.3-38.7,34.8-95.3,34.1-110.2a23.48,23.48,0,0,0-.1-2.6c-.1-5.6-.1-13.1-6.6-22.7C180.4,69,153.7,52.9,132.4,43.2,117.8,36.6,80.6,21.2,51.1,21.2Z" transform="translate(0 -0.01)"/><path d="M57.8,5.1C73.5,5.1,93,8.8,115.7,16c65.2,20.8,100.9,42.2,104.8,44.6,3.5,2.2,6.1,4.3,7,7.4,4,12.9-19,110.6-56.7,162.9-9,12.5-19.2,22.2-30.3,28.8-9.6,5.7-19.2,8.7-27.8,8.7-6.6,0-12.2-1.8-15.9-5.2-13.1-11.8-33.4-37.6-51.7-65.8-20.8-32-35-60.9-39-79.3a181.29,181.29,0,0,1-3-58.3c1.8-16,5.8-29.5,10.4-35.4,5.2-6.7,15-19.3,44.3-19.3m53,256.9c9.4,0,19-3.8,28.5-11.2,8.7-6.8,17.3-16.7,25.6-29.4,13.5-20.7,21.9-45.7,26.6-63,5.8-21.7,8.1-39.7,7.7-47.8a23.48,23.48,0,0,0-.1-2.6c-.1-5.7-.2-13.5-6.8-23.2-11.2-16.5-38.1-32.7-59.6-42.5C88.8,22.3,61,20.2,51.1,20.2S33,21.9,26.7,25.4c-30.7,16.8-21,84-20.6,86.9,1.6,10.8,9.4,41.5,46.1,93.1,18.4,25.9,42.9,54.3,52.1,56a34.93,34.93,0,0,0,6.5.6M57.9,3.1C28.2,3.1,17.8,15.7,12,23.2,2.8,35-5.1,76.7,4.1,118.5S69.3,241.2,95.4,264.7c4.1,3.7,10.1,5.7,17.2,5.7,16.9,0,40.2-11.2,59.8-38.3,37.4-51.8,61.4-150.5,57-164.7-1.2-3.9-4.4-6.4-7.9-8.5C210.2,52,173.7,32.4,116.3,14.1c-25.1-8-44.1-11-58.4-11Zm53,256.9a31.79,31.79,0,0,1-6.2-.6C89.9,256.7,15.8,164.2,8,112,6,99,.6,41.9,27.6,27.1c6.5-3.6,14.6-5,23.5-5,31,0,70.9,17.4,80.9,21.9,24.2,11,48.6,26.9,58.7,41.8,7.4,10.8,6.2,18.9,6.5,24.8.8,16.6-9.8,72.7-33.9,109.6-15.9,24.3-33.8,39.8-52.4,39.8Z" transform="translate(0 -0.01)"/><path class="cls-2" d="M479.8,51.3,747.3,74.8,872.7,3,936,7.6l14.4,112.2-73.1,141,77,210.1-34,96.5-234.9,107s-36.5,74.4-41.8,77-73.1,24.8-73.1,24.8L526.1,801H484.3l-2.8-458.9Z" transform="translate(0 -0.01)"/><path class="cls-3" d="M481.8,341.7" transform="translate(0 -0.01)"/><polygon class="cls-2" points="732.3 370.39 874.6 431.69 614.2 411.19 732.3 370.39"/><polygon class="cls-2" points="874.6 431.69 954.2 470.89 920.3 567.49 874.6 431.69"/><polygon class="cls-2" points="604.4 627.49 571.8 600.09 535.2 697.99 604.4 627.49"/><path class="cls-2" d="M535.3,698l35.2,78.3Z" transform="translate(0 -0.01)"/><polygon class="cls-2" points="535.2 697.99 483.7 722.99 570.5 776.29 526.1 801.09 484.4 722.79 483 556.99 571.8 600.09 535.2 697.99"/><polyline class="cls-2" points="483 556.99 571.8 600.09 535.2 697.99 483 556.99 587.2 440.39 613.6 410.79 587.5 440.89 667.7 430.59 660.5 472.19 633.1 435.59 660.5 472.19 809.3 481.29 660.5 472.19 660 555.39 540.5 491.79"/><polygon class="cls-2" points="809.3 481.29 604.4 627.49 571.8 600.09 809.3 481.29"/><polygon class="cls-2" points="571.8 600.09 541 491.79 483 556.99 571.8 600.09"/><polygon class="cls-2" points="587.5 440.89 563.8 503.89 627.9 517.89 660 555.39 660 472.19 627.9 517.89 587.5 440.89"/><polyline class="cls-2" points="935.9 7.59 883.7 49.29 872 3.59 883.7 49.29 950.3 119.79 883.7 49.29 877.2 260.79 746.7 75.39 633.1 147.19 877.2 260.79 570.5 294.69 480.4 51.89 633.1 147.19 570.5 294.69 732.3 370.39 511.8 444.79 483.6 557.39 481.7 341.69 511.8 444.79 570.5 294.69 481.7 341.69"/><path class="cls-2" d="M732.3,370.4" transform="translate(0 -0.01)"/><line class="cls-2" x1="746.7" y1="75.39" x2="883.7" y2="49.29"/><polyline class="cls-2" points="484.3 698.49 535.2 697.99 643.6 751.49 604.4 627.49 685.3 674.49 809.3 481.29 613.6 410.79 809.3 481.29 920.3 567.49 809.3 481.29 874.6 431.69"/><polyline class="cls-2" points="660.5 555.69 730.3 477.49 668.4 430.39"/><polygon class="cls-4" points="587.7 440.99 632.7 435.99 659.7 471.99 627.7 517.99 563.7 503.99 587.7 440.99"/></svg>